<svg width="24" height="24" viewBox="0 0 24 24" fill="none" xmlns="http://www.w3.org/2000/svg">
<path d="M14.7356 12C14.7356 13.578 13.4564 14.8571 11.8785 14.8571C10.3005 14.8571 9.02133 13.578 9.02133 12C9.02133 10.422 10.3005 9.14286 11.8785 9.14286C13.4564 9.14286 14.7356 10.422 14.7356 12Z" fill="white"/>
<path fill-rule="evenodd" clip-rule="evenodd" d="M11.8785 24C17.9239 24 22.9251 19.5296 23.757 13.7143H16.7287C16.0227 15.7118 14.1177 17.1429 11.8785 17.1429C9.63924 17.1429 7.73426 15.7118 7.02826 13.7143H0C0.831822 19.5296 5.8331 24 11.8785 24ZM7.02826 10.2857H0C0.831822 4.47035 5.8331 0 11.8785 0C17.9239 0 22.9251 4.47035 23.757 10.2857H16.7287C16.0227 8.28824 14.1177 6.85714 11.8785 6.85714C9.63924 6.85714 7.73426 8.28824 7.02826 10.2857ZM14.7356 12C14.7356 13.578 13.4564 14.8571 11.8785 14.8571C10.3005 14.8571 9.02133 13.578 9.02133 12C9.02133 10.422 10.3005 9.14286 11.8785 9.14286C13.4564 9.14286 14.7356 10.422 14.7356 12Z" fill="white"/>
</svg>
